PathFileType	4	(X/Y/Z)	C:/Users/opensim2020/Desktop/walking_exp_matlab/subject01_walking09_straight_03.trc																																																																																																																															
DataRate	CameraRate	NumFrames	NumMarkers	Units	OrigDataRate	OrigDataStartFrame	OrigNumFrames																																																																																																																											
100	100	8	43	mm	100	3148	348																																																																																																																											
Frame#	Time	LFHD			RFHD			LBHD			RBHD			C7			T10			CLAV			STRN			RBAK			LSHO			LUPA			LELB			LFRM			LWRA			LWRB			LFIN			RSHO			RUPA			RELB			RFRM			RWRA			RWRB			RFIN			LASI			RASI			LPSI			RPSI			LTHI			LKNE			LTIB			LANK			LHEE			LTOE			RTHI			RKNE			RTIB			RANK			RHEE			RTOE			*39			*40			*41			*42		
		X1	Y1	Z1	X2	Y2	Z2	X3	Y3	Z3	X4	Y4	Z4	X5	Y5	Z5	X6	Y6	Z6	X7	Y7	Z7	X8	Y8	Z8	X9	Y9	Z9	X10	Y10	Z10	X11	Y11	Z11	X12	Y12	Z12	X13	Y13	Z13	X14	Y14	Z14	X15	Y15	Z15	X16	Y16	Z16	X17	Y17	Z17	X18	Y18	Z18	X19	Y19	Z19	X20	Y20	Z20	X21	Y21	Z21	X22	Y22	Z22	X23	Y23	Z23	X24	Y24	Z24	X25	Y25	Z25	X26	Y26	Z26	X27	Y27	Z27	X28	Y28	Z28	X29	Y29	Z29	X30	Y30	Z30	X31	Y31	Z31	X32	Y32	Z32	X33	Y33	Z33	X34	Y34	Z34	X35	Y35	Z35	X36	Y36	Z36	X37	Y37	Z37	X38	Y38	Z38	X39	Y39	Z39	X40	Y40	Z40	X41	Y41	Z41	X42	Y42	Z42	X43	Y43	Z43
																																																																																																																																		
305	3.04	760.9397	1677.91541	-1038.81921	768.19037	1689.18335	-925.23358	653.34467	1614.73853	-1035.24426	658.19507	1624.62756	-914.19995	635.36292	1433.09192	-981.72876	601.71814	1141.65186	-967.55322	781.24518	1369.3125	-977.2384	826.01685	1214.021	-978.90247	583.92133	1240.77173	-896.47693	722.26141	1394.5437	-1139.98706	684.16168	1209.67297	-1220.77222	662.23608	1062.18835	-1217.92627	686.85791	951.17206	-1241.48621	746.46228	825.53882	-1218.22949	694.08588	828.87183	-1247.79993	732.15961	751.96051	-1253.17297	716.96448	1398.21033	-827.21088	682.25012	1196.45764	-717.06226	701.49597	1071.72449	-710.16364	765.9549	967.52637	-684.85895	877.82971	883.86847	-714.07983	841.01141	871.00153	-671.21918	901.94934	809.75262	-678.24286	777.12775	939.87573	-1070.57129	764.68054	931.17059	-853.43707	588.76239	946.38214	-1028.86719	581.70892	948.69855	-884.41223	822.12769	624.62177	-1155.97485	855.77319	495.685	-1143.06018	851.50775	311.50925	-1164.34705	891.15283	89.4857	-1129.97534	860.61792	46.2522	-1074.4259	1037.3678	89.15641	-1141.46643	688.68188	598.30115	-814.82263	683.66565	438.66031	-843.8324	609.80615	278.11951	-841.5564	553.97284	81.21096	-892.89612	498.96741	46.3614	-942.85394	689.24841	39.28787	-892.65051	751.41315	1719.34937	-949.75671	1973.17737	1023.48798	-3101.80664	2012.63379	1022.18665	-3140.60059	NaN	NaN	NaN
306	3.05	767.5285	1677.22852	-1040.03662	774.68146	1688.64404	-926.42212	659.93347	1614.10364	-1036.57874	664.63123	1624.06042	-915.49054	641.81866	1432.5636	-983.05096	608.08136	1141.09033	-968.90228	787.60974	1368.646	-978.24866	832.34601	1213.34534	-979.69244	589.99091	1240.3634	-897.81946	729.05389	1393.95093	-1141.21924	690.70044	1209.12231	-1221.8678	668.164	1061.66101	-1218.99341	692.35205	950.71643	-1242.59583	751.37543	824.7392	-1219.40051	698.99792	828.30884	-1248.87769	736.6897	751.26898	-1254.50244	722.96216	1397.59302	-828.4953	688.5155	1195.89563	-718.27502	708.01532	1071.25146	-711.24237	772.72162	967.13617	-685.94543	884.86755	883.84973	-715.06885	848.16284	870.98096	-672.14001	909.06537	809.64496	-679.16772	784.00372	939.18726	-1070.99646	770.31055	930.72467	-853.79095	595.41028	945.67242	-1030.2572	587.59296	948.1922	-885.95068	828.323	623.69452	-1156.70361	862.28296	495.19778	-1143.91345	861.64111	311.17694	-1165.71814	906.22351	89.80676	-1131.72949	876.13953	45.66156	-1076.10205	1052.75464	92.09174	-1141.57715	692.96307	598.08331	-814.99036	687.02136	438.29987	-843.85089	611.75812	278.46078	-841.8042	554.22388	81.91216	-892.91821	499.08267	47.56216	-942.84357	689.3194	39.22828	-892.60895	757.89417	1718.79578	-950.98163	1973.07373	1023.4212	-3101.82959	2012.50659	1022.03815	-3140.63525	NaN	NaN	NaN
307	3.06	774.12885	1676.67261	-1041.42322	781.14307	1688.08069	-927.68439	666.5564	1613.45422	-1037.94153	671.0849	1623.41309	-916.93982	648.25531	1431.94775	-984.44482	614.45654	1140.53369	-970.42328	794.06555	1368.02783	-979.33759	838.68988	1212.69104	-980.55945	596.18793	1239.81775	-899.2962	735.86212	1393.32178	-1142.474	697.29407	1208.54541	-1223.11206	674.33624	1061.12268	-1220.24988	698.0625	950.13611	-1243.75476	756.62494	823.92957	-1220.59436	704.19751	827.68774	-1250.12024	741.61859	750.44379	-1255.58008	728.94073	1396.96826	-829.75232	694.89819	1195.38916	-719.59863	714.49225	1070.67322	-712.4408	779.41559	966.71063	-687.08191	891.67773	883.5434	-716.0556	854.78687	870.3811	-673.42627	915.90308	809.32947	-680.24054	790.96997	938.42407	-1071.46155	776.10803	930.23065	-854.25653	602.19904	944.97192	-1031.7262	593.52002	947.53638	-887.64789	834.93835	622.95966	-1157.43127	869.05756	494.86948	-1144.78809	871.35815	310.83203	-1167.03906	919.78918	90.10857	-1133.3125	889.88025	45.64071	-1078.1532	1066.66125	94.46523	-1141.64941	696.98718	598.05164	-815.2215	690.3407	438.24057	-843.95789	613.66083	278.83463	-841.92383	554.39667	82.74317	-892.95459	499.19446	48.6001	-942.81885	689.45319	39.25412	-892.409	764.35822	1718.17444	-952.3172	1973.12622	1023.32709	-3101.94702	2012.45947	1021.99854	-3140.64868	NaN	NaN	NaN
308	3.07	780.69824	1676.01929	-1042.87988	787.51782	1687.48547	-929.11646	673.13464	1612.79443	-1039.49353	677.46899	1622.83655	-918.39343	654.61292	1431.40112	-986.1676	620.93152	1139.896	-972.0025	800.4726	1367.39819	-980.53485	845.05981	1212.04517	-981.48401	602.29169	1239.27441	-900.91278	742.66559	1392.72021	-1143.87646	704.03088	1207.95386	-1224.44775	680.73798	1060.703	-1221.51697	704.09735	949.59906	-1244.98743	762.09094	823.12146	-1221.84631	709.74146	827.10822	-1251.33142	746.84998	749.82312	-1256.96082	735.02338	1396.47302	-831.21051	701.12885	1194.82361	-721.03442	721.04218	1070.09863	-713.81842	786.0083	966.26538	-688.31787	898.31647	883.16449	-717.06104	861.36737	869.95563	-674.64661	922.55975	808.97363	-681.30151	798.04346	937.62311	-1072.00671	782.06567	929.82025	-854.81812	608.97644	944.22211	-1033.4021	599.57806	947.22412	-889.19287	841.85956	622.18225	-1158.17834	875.93628	494.37723	-1145.70837	880.68134	310.54489	-1168.45215	931.94452	90.2175	-1134.85974	902.03564	45.27072	-1080.09204	1079.0675	96.18203	-1141.55884	701.19354	597.81653	-815.67383	693.65344	438.0072	-844.18909	615.6413	279.33023	-842.14478	555.10175	83.61066	-892.97552	499.48978	50.07607	-942.77783	689.52216	39.20872	-892.39502	770.87268	1717.58813	-953.69629	1973.13867	1023.5517	-3101.91553	2012.56079	1022.00641	-3140.48706	NaN	NaN	NaN
309	3.08	787.29419	1675.37231	-1044.31543	794.00549	1686.91235	-930.56293	679.73639	1612.12366	-1041.06165	683.8996	1622.21741	-919.97778	661.04431	1430.81409	-987.90601	627.39655	1139.29956	-973.70831	806.90387	1366.79785	-981.77271	851.52478	1211.4519	-982.52704	608.48431	1238.75916	-902.67657	749.5155	1392.10779	-1145.28296	710.88159	1207.33228	-1225.90796	687.38409	1060.24011	-1222.90259	710.34735	948.94202	-1246.39697	767.92163	822.34357	-1223.1532	715.62427	826.47742	-1252.79419	752.63312	749.19934	-1258.61279	741.05914	1395.95935	-832.63428	707.26233	1194.17346	-722.58466	727.48755	1069.44434	-715.44568	792.37872	965.63226	-689.70819	904.87946	882.64008	-718.20892	867.76294	869.45325	-675.78772	929.11548	808.52826	-682.45343	805.16614	936.83557	-1072.63696	788.16522	929.45447	-855.27545	615.935	943.45325	-1035.10364	605.64795	946.74261	-891.00592	849.54053	621.92798	-1158.90613	883.10553	494.00684	-1146.47205	889.64398	310.24512	-1169.82263	942.72144	90.23024	-1136.31396	912.54071	44.97558	-1082.11841	1090.00671	97.48737	-1141.49731	705.38416	597.83087	-816.1236	697.14783	438.13797	-844.08014	617.80927	279.78406	-842.18536	555.21576	84.38336	-893.10486	499.69482	51.29046	-942.76526	689.70685	39.06781	-892.20862	777.26495	1717.00146	-955.22919	1973.09583	1023.30988	-3101.91895	2012.61157	1022.03894	-3140.5957	NaN	NaN	NaN
310	3.09	793.87018	1674.81873	-1045.93115	800.41608	1686.38635	-932.11926	686.34741	1611.5354	-1042.74866	690.32178	1621.67798	-921.7077	667.50562	1430.21289	-989.71277	633.94281	1138.68555	-975.51959	813.35925	1366.25708	-983.18549	857.91669	1210.87476	-983.65436	614.70453	1238.18311	-904.59296	756.35321	1391.49011	-1146.79041	717.82172	1206.71558	-1227.44373	694.13696	1059.64526	-1224.40002	716.90613	948.37152	-1247.88293	774.04388	821.57825	-1224.54187	721.83533	825.88544	-1254.25488	758.53992	748.41949	-1259.78357	747.01868	1395.37805	-834.1709	713.35638	1193.49939	-724.24377	733.83789	1068.86182	-717.04095	798.75067	965.12097	-691.22198	911.19922	881.99713	-719.38867	874.10718	868.89172	-677.21735	935.46118	807.91943	-683.63184	812.35504	936.1123	-1073.38354	794.4361	929.17261	-855.98792	623.00195	942.6897	-1036.94434	611.98596	946.17157	-893.04279	857.2782	621.49371	-1159.48706	890.55157	493.68384	-1146.88086	898.16943	309.93671	-1171.04175	952.16736	89.95451	-1137.68921	921.79791	44.49084	-1083.83032	1099.61377	97.97079	-1141.20117	710.17896	597.66956	-816.59778	700.57782	437.7691	-844.47784	619.83099	280.31607	-842.38623	555.7829	85.49451	-892.85382	499.76038	52.65956	-942.88281	689.64728	39.22795	-892.24048	783.73004	1716.46338	-956.83093	1973.19678	1023.40094	-3101.92896	2012.547	1022.01166	-3140.71069	NaN	NaN	NaN
311	3.1	800.44788	1674.19287	-1047.44275	806.76709	1685.84448	-933.74908	692.87671	1610.91516	-1044.54797	696.70093	1621.11047	-923.47742	673.93652	1429.66333	-991.50049	640.56134	1138.04382	-977.49915	819.823	1365.70764	-984.60681	864.42792	1210.34973	-984.87683	621.02533	1237.53784	-906.58588	763.21423	1390.89294	-1148.41858	724.92786	1206.06812	-1229.08899	701.01666	1058.94373	-1226.02649	723.68762	947.7486	-1249.46777	780.45239	820.82471	-1225.97827	728.35492	825.29364	-1255.91125	764.87329	747.74475	-1261.44141	753.05023	1394.75037	-835.8559	719.28479	1192.72461	-726.07739	740.16418	1068.27576	-718.89386	804.94281	964.50555	-692.80145	917.42065	881.39099	-720.63013	880.14764	868.10229	-678.49072	941.51086	807.18878	-684.80969	819.64838	935.39581	-1074.21375	800.61835	928.7511	-856.92633	630.07471	941.94257	-1038.8252	618.10999	945.82666	-895.12183	865.21552	621.03235	-1159.88538	898.01849	493.31424	-1147.4071	906.32349	309.49945	-1171.81909	960.2218	89.44242	-1138.88391	929.29535	43.67131	-1085.56738	1107.83264	97.63966	-1140.89392	714.48285	597.71783	-817.31384	704.26941	437.71805	-844.81055	622.03009	280.95624	-842.5282	556.05664	86.54687	-892.81091	500.28473	53.80987	-942.63788	689.65295	39.14272	-892.11591	790.14178	1715.90625	-958.50458	1973.16895	1023.30231	-3101.99829	2012.50024	1021.98132	-3140.57715	NaN	NaN	NaN
312	3.11	807.00354	1673.70728	-1049.24609	813.09796	1685.37085	-935.42834	699.47076	1610.32666	-1046.43469	703.12646	1620.64294	-925.19965	680.46844	1429.05591	-993.38013	647.24817	1137.39636	-979.5368	826.31573	1365.21509	-986.13196	870.99799	1209.83447	-986.25446	627.34973	1236.94104	-908.71057	770.12274	1390.30518	-1150.05396	732.10529	1205.43799	-1230.80566	708.19812	1058.52307	-1227.75366	730.78412	947.18805	-1251.13745	787.19495	820.09857	-1227.50183	735.19397	824.65253	-1257.55786	771.63403	746.97754	-1262.91052	759.15637	1394.32654	-837.40344	725.50854	1192.15454	-727.9895	746.42413	1067.698	-720.84662	811.15216	964.03754	-694.36572	923.53528	880.58344	-721.93652	886.05444	867.52539	-679.7832	947.35986	806.36896	-686.09753	827.01093	934.72369	-1075.13892	806.7605	928.28033	-858.28497	637.38837	941.26941	-1040.84631	624.62488	945.64294	-897.06696	873.38806	620.77557	-1160.28479	905.68201	492.9729	-1147.56274	913.87341	308.96243	-1172.64709	966.96521	88.58114	-1139.91174	935.50214	43.04158	-1087.02905	1114.81104	96.54418	-1140.37744	719.20367	597.60504	-817.96692	708.27185	437.24344	-845.34979	624.19934	281.52042	-842.61255	556.69531	87.66663	-892.59369	500.28928	55.61129	-942.71509	689.64569	38.9769	-892.15735	796.56805	1715.38977	-960.25983	1973.22168	1023.45612	-3101.79614	2012.54077	1022.09314	-3140.72583	NaN	NaN	NaN
